<svg width="294" height="63" viewBox="0 0 294 63" fill="none" xmlns="http://www.w3.org/2000/svg">
<g clip-path="url(#clip0_1_14)">
<path d="M188.16 35.4745L223.443 35.4745V23.6538L188.16 23.6538V35.4745Z" fill="#FE6D17"/>
<path d="M182.28 11.83L229.323 11.83V0.00936413L182.28 0.00936413V11.83Z" fill="#FE6D17"/>
<path d="M182.28 59.119L229.323 59.119V47.2983L182.28 47.2983V59.119Z" fill="#FE6D17"/>
<path d="M76.4307 0C70.6153 0 64.9305 1.73336 60.0952 4.98089C55.2599 8.22841 51.4912 12.8442 49.2658 18.2447C47.0403 23.6451 46.458 29.5876 47.5926 35.3207C48.7271 41.0538 51.5275 46.3199 55.6396 50.4532C59.7517 54.5866 64.9908 57.4014 70.6944 58.5418C76.3981 59.6821 82.3101 59.0969 87.6828 56.8599C93.0555 54.623 97.6476 50.8349 100.878 45.9746C104.109 41.1143 105.834 35.4002 105.834 29.5548C105.834 21.7164 102.736 14.199 97.2218 8.65641C91.7077 3.1138 84.2289 0 76.4307 0ZM76.4307 47.2858C72.9411 47.2858 69.5299 46.2457 66.6284 44.2969C63.7269 42.3481 61.4656 39.5782 60.1303 36.3375C58.795 33.0969 58.4458 29.531 59.1268 26.0908C59.8078 22.6506 61.4885 19.4907 63.9562 17.0107C66.424 14.5306 69.568 12.8419 72.9906 12.1579C76.4132 11.474 79.9608 11.8257 83.1846 13.1684C86.4084 14.5111 89.1636 16.7846 91.1019 19.7014C93.0402 22.6182 94.0744 26.0472 94.0738 29.5548C94.0754 31.8845 93.6202 34.1916 92.7342 36.3443C91.8482 38.497 90.5488 40.453 88.9103 42.1006C87.2717 43.7482 85.3262 45.055 83.1848 45.9463C81.0435 46.8377 78.7484 47.296 76.4307 47.2952V47.2858Z" fill="#FE6D17"/>
<path d="M264.597 0H241.077V59.119H252.837V11.8207H264.597C266.933 11.7895 269.253 12.2252 271.42 13.1024C273.588 13.9796 275.56 15.2808 277.223 16.9305C278.887 18.5802 280.207 20.5455 281.108 22.7124C282.01 24.8793 282.474 27.2046 282.474 29.5533C282.474 31.9019 282.01 34.2272 281.108 36.3941C280.207 38.561 278.887 40.5263 277.223 42.176C275.56 43.8258 273.588 45.127 271.42 46.0041C269.253 46.8813 266.933 47.317 264.597 47.2858V59.1096C268.458 59.1096 272.282 58.3452 275.849 56.8599C279.416 55.3746 282.658 53.1977 285.388 50.4532C288.118 47.7088 290.284 44.4507 291.762 40.865C293.239 37.2792 294 33.436 294 29.5548C294 25.6736 293.239 21.8304 291.762 18.2447C290.284 14.6589 288.118 11.4008 285.388 8.65641C282.658 5.91199 279.416 3.735 275.849 2.24973C272.282 0.764458 268.458 0 264.597 0Z" fill="#FE6D17"/>
<path d="M30.4141 34.0562C34.1584 32.4571 37.2378 29.6066 39.1311 25.9872C41.0243 22.3678 41.615 18.202 40.8031 14.195C39.9912 10.1881 37.8267 6.5863 34.676 3.99947C31.5253 1.41264 27.582 -0.000258445 23.5138 3.54592e-08H0V59.0691H11.7507V11.8207H23.5138C25.0119 11.9122 26.4188 12.5749 27.4474 13.6736C28.476 14.7722 29.0487 16.224 29.0487 17.7326C29.0487 19.2412 28.476 20.693 27.4474 21.7916C26.4188 22.8903 25.0119 23.553 23.5138 23.6445V23.6258H17.6214V35.4465L31.1925 59.0691H44.7823L30.4141 34.0562Z" fill="#FE6D17"/>
<path d="M140.007 47.2578C136.239 47.0174 132.648 45.568 129.761 43.1228C126.874 40.6777 124.844 37.3658 123.969 33.6743C123.095 29.9829 123.422 26.1068 124.903 22.6163C126.384 19.1257 128.94 16.205 132.195 14.2837C135.451 12.3624 139.234 11.542 142.988 11.9431C146.742 12.3443 150.269 13.9458 153.049 16.5121C155.83 19.0784 157.718 22.4741 158.436 26.1995C159.154 29.925 158.663 33.7836 157.036 37.2077L149.431 29.5642L141.108 37.9216L166.057 63L174.372 54.6426L165.636 45.8581C169.482 40.0202 171.146 33.0011 170.333 26.0469C169.519 19.0926 166.28 12.6531 161.191 7.87153C156.102 3.08995 149.492 0.275661 142.534 -0.0717521C135.576 -0.419165 128.721 1.72278 123.186 5.97384C117.65 10.2249 113.792 16.31 112.297 23.149C110.802 29.988 111.766 37.1383 115.018 43.3307C118.27 49.523 123.6 54.3568 130.061 56.9738C136.522 59.5908 143.697 59.8218 150.312 57.6258L140.007 47.2578Z" fill="#FE6D17"/>
</g>
<defs>
<clipPath id="clip0_1_14">
<rect width="294" height="63" fill="white"/>
</clipPath>
</defs>
</svg>
